<mxfile host="app.diagrams.net" agent="Mozilla/5.0 (Windows NT 10.0; Win64; x64) AppleWebKit/537.36 (KHTML, like Gecko) Chrome/126.0.0.0 Safari/537.36 OPR/112.0.0.0 (Edition std-1)" version="24.7.10">
  <diagram name="PÃ¡gina-1" id="H35z8zRqaceN1AceuVCz">
    <mxGraphModel grid="1" page="1" gridSize="10" guides="1" tooltips="1" connect="1" arrows="1" fold="1" pageScale="1" pageWidth="827" pageHeight="1169" math="0" shadow="0">
      <root>
        <mxCell id="0" />
        <mxCell id="1" parent="0" />
        <mxCell id="dLItnMSgPNpztyV-Zrei-2" value="" style="rounded=0;whiteSpace=wrap;html=1;" vertex="1" parent="1">
          <mxGeometry x="170" y="170" width="410" height="280" as="geometry" />
        </mxCell>
        <mxCell id="dLItnMSgPNpztyV-Zrei-4" style="rounded=0;orthogonalLoop=1;jettySize=auto;html=1;exitX=0.5;exitY=0.5;exitDx=0;exitDy=0;exitPerimeter=0;entryX=0;entryY=0.5;entryDx=0;entryDy=0;" edge="1" parent="1" source="dLItnMSgPNpztyV-Zrei-1" target="dLItnMSgPNpztyV-Zrei-3">
          <mxGeometry relative="1" as="geometry" />
        </mxCell>
        <mxCell id="dLItnMSgPNpztyV-Zrei-1" value="Usuario Admin" style="shape=umlActor;verticalLabelPosition=bottom;verticalAlign=top;html=1;outlineConnect=0;" vertex="1" parent="1">
          <mxGeometry x="90" y="290" width="30" height="60" as="geometry" />
        </mxCell>
        <mxCell id="dLItnMSgPNpztyV-Zrei-7" style="rounded=0;orthogonalLoop=1;jettySize=auto;html=1;exitX=1;exitY=0.5;exitDx=0;exitDy=0;entryX=0;entryY=0.5;entryDx=0;entryDy=0;" edge="1" parent="1" source="dLItnMSgPNpztyV-Zrei-3" target="dLItnMSgPNpztyV-Zrei-5">
          <mxGeometry relative="1" as="geometry" />
        </mxCell>
        <mxCell id="dLItnMSgPNpztyV-Zrei-9" value="&amp;lt;&amp;lt;include&amp;gt;&amp;gt;" style="edgeLabel;html=1;align=center;verticalAlign=middle;resizable=0;points=[];" connectable="0" vertex="1" parent="dLItnMSgPNpztyV-Zrei-7">
          <mxGeometry x="-0.0859" y="1" relative="1" as="geometry">
            <mxPoint as="offset" />
          </mxGeometry>
        </mxCell>
        <mxCell id="dLItnMSgPNpztyV-Zrei-8" style="edgeStyle=none;rounded=0;orthogonalLoop=1;jettySize=auto;html=1;exitX=1;exitY=0.5;exitDx=0;exitDy=0;entryX=0;entryY=0.5;entryDx=0;entryDy=0;" edge="1" parent="1" source="dLItnMSgPNpztyV-Zrei-3" target="dLItnMSgPNpztyV-Zrei-6">
          <mxGeometry relative="1" as="geometry" />
        </mxCell>
        <mxCell id="dLItnMSgPNpztyV-Zrei-10" value="&amp;lt;&amp;lt;include&amp;gt;&amp;gt;" style="edgeLabel;html=1;align=center;verticalAlign=middle;resizable=0;points=[];" connectable="0" vertex="1" parent="dLItnMSgPNpztyV-Zrei-8">
          <mxGeometry x="-0.1069" y="1" relative="1" as="geometry">
            <mxPoint as="offset" />
          </mxGeometry>
        </mxCell>
        <mxCell id="dLItnMSgPNpztyV-Zrei-3" value="Aprobar Cancha" style="ellipse;whiteSpace=wrap;html=1;" vertex="1" parent="1">
          <mxGeometry x="190" y="280" width="120" height="80" as="geometry" />
        </mxCell>
        <mxCell id="dLItnMSgPNpztyV-Zrei-5" value="Revisar normas" style="ellipse;whiteSpace=wrap;html=1;" vertex="1" parent="1">
          <mxGeometry x="410" y="210" width="120" height="80" as="geometry" />
        </mxCell>
        <mxCell id="dLItnMSgPNpztyV-Zrei-6" value="Verificar condiciones de la cancha" style="ellipse;whiteSpace=wrap;html=1;" vertex="1" parent="1">
          <mxGeometry x="410" y="320" width="120" height="80" as="geometry" />
        </mxCell>
      </root>
    </mxGraphModel>
  </diagram>
</mxfile>
